Coordinates
version=1
nRows=13
nColumns=63
inDegrees=yes

Units are S.I. units (second, meters, Newtons, ...)
If the header above contains a line with 'inDegrees', this indicates whether rotational values are in degrees (yes) or radians (no).

endheader
time	pelvis_tilt	pelvis_list	pelvis_rotation	pelvis_tx	pelvis_ty	pelvis_tz	hip_flexion_r	hip_adduction_r	hip_rotation_r	knee_angle_r	knee_angle_r_beta	ankle_angle_r	subtalar_angle_r	mtp_angle_r	hip_flexion_l	hip_adduction_l	hip_rotation_l	knee_angle_l	knee_angle_l_beta	ankle_angle_l	subtalar_angle_l	mtp_angle_l	L5_S1_Flex_Ext	L5_S1_Lat_Bending	L5_S1_axial_rotation	L4_L5_Flex_Ext	L4_L5_Lat_Bending	L4_L5_axial_rotation	L3_L4_Flex_Ext	L3_L4_Lat_Bending	L3_L4_axial_rotation	L2_L3_Flex_Ext	L2_L3_Lat_Bending	L2_L3_axial_rotation	L1_L2_Flex_Ext	L1_L2_Lat_Bending	L1_L2_axial_rotation	L1_T12_Flex_Ext	L1_T12_Lat_Bending	L1_T12_axial_rotation	Abs_r3	Abs_r2	Abs_r1	Abs_t1	Abs_t2	neck_flexion	neck_bending	neck_rotation	arm_flex_r	arm_add_r	arm_rot_r	elbow_flex_r	pro_sup_r	wrist_flex_r	wrist_dev_r	arm_flex_l	arm_add_l	arm_rot_l	elbow_flex_l	pro_sup_l	wrist_flex_l	wrist_dev_l
5.431034	-1.535140	0.000872	85.238880	0.169297	0.752897	0.768716	-0.653955	-3.465180	5.951599	4.578719	0.079914	27.740130	4.050092	0.000000	0.422283	0.325841	-7.661992	4.642006	0.081018	31.172466	12.075450	0.000000	0.323682	-0.392508	0.643111	0.601111	-0.522036	0.683305	0.531778	-0.954345	0.683305	0.369937	-0.954345	0.562722	0.300572	-0.800403	0.522527	0.184952	-0.607996	0.482333	2.312031	-4.440134	3.576788	0.000000	0.000000	28.416973	4.870958	4.848143	84.460330	-26.306552	-7.590546	69.938162	88.702154	-33.166523	-6.063339	78.167327	-39.567978	-4.813471	87.231925	86.611695	-33.635135	-9.983314
5.448276	-1.525301	0.029798	85.649974	0.168480	0.753278	0.768037	-0.851265	-3.467377	5.599132	4.488581	0.078341	27.482367	3.747231	0.000000	0.474047	0.276388	-7.620170	4.947770	0.086355	31.213125	12.728704	0.000000	0.296054	-0.409744	0.411742	0.549801	-0.544959	0.437476	0.486386	-0.996251	0.437476	0.338360	-0.996251	0.360274	0.274915	-0.835550	0.334541	0.169165	-0.634693	0.308807	2.114681	-4.635104	2.289987	0.000000	0.000000	28.359760	4.921716	4.094317	82.783408	-26.505344	-6.812036	74.218717	88.881817	-31.913754	-5.255894	74.970987	-41.804781	-6.904272	91.883292	87.898791	-33.085487	-8.412580
5.465517	-1.453579	0.077447	86.098008	0.167530	0.753523	0.767098	-1.114300	-3.406607	5.426546	4.344072	0.075818	27.219431	3.174169	0.000000	0.496466	0.170394	-7.551322	5.274219	0.092052	31.272082	13.342252	0.000000	0.267094	-0.415375	0.152399	0.496021	-0.552449	0.161924	0.438810	-1.009944	0.161924	0.305262	-1.009944	0.133349	0.248024	-0.847033	0.123824	0.152618	-0.643416	0.114299	1.907829	-4.698809	0.847596	0.000000	0.000000	28.344184	5.107711	3.809538	80.531200	-26.550140	-6.434877	78.955674	89.077438	-30.397881	-3.791627	70.286580	-43.820837	-10.190828	96.946874	88.811969	-32.220653	-6.755163
5.482759	-1.335611	0.118886	86.589445	0.166505	0.753578	0.765868	-1.416197	-3.292098	5.424099	4.151717	0.072461	26.964816	2.337053	0.000000	0.520749	0.017858	-7.452602	5.630110	0.098264	31.365980	13.903334	0.000000	0.238855	-0.411753	-0.123160	0.443577	-0.547631	-0.130857	0.392415	-1.001135	-0.130857	0.272987	-1.001135	-0.107765	0.221801	-0.839646	-0.100067	0.136482	-0.637805	-0.092370	1.706116	-4.657829	-0.684978	0.000000	0.000000	28.355009	5.437758	4.026412	77.643184	-26.439560	-6.587001	84.034254	89.252828	-28.762971	-1.981479	64.227861	-45.498754	-14.523432	102.282621	89.173915	-30.956519	-5.018814
5.500000	-1.192699	0.149036	87.087013	0.165476	0.753431	0.764380	-1.736069	-3.145113	5.606960	3.924734	0.068500	26.729233	1.269008	0.000000	0.546398	-0.159205	-7.350308	5.991004	0.104563	31.494671	14.404767	0.000000	0.211473	-0.402360	-0.389399	0.392727	-0.535138	-0.413736	0.347429	-0.978297	-0.413736	0.241692	-0.978297	-0.340724	0.196374	-0.820492	-0.316387	0.120836	-0.623255	-0.292049	1.510531	-4.551571	-2.165720	0.000000	0.000000	28.359708	5.846043	4.600128	74.003067	-26.225936	-7.472612	89.400679	89.376889	-26.818469	0.280479	57.065385	-46.705930	-19.674568	107.670350	89.081145	-29.046372	-3.094948
5.517241	-1.044924	0.170920	87.573237	0.164488	0.753104	0.762692	-2.061547	-2.987239	5.940549	3.679776	0.064224	26.533327	0.049110	0.000000	0.569461	-0.340223	-7.244143	6.336317	0.110590	31.665555	14.842591	0.000000	0.185555	-0.391322	-0.634369	0.344593	-0.520459	-0.674017	0.304848	-0.951461	-0.674017	0.212070	-0.951461	-0.555073	0.172306	-0.797984	-0.515425	0.106026	-0.606158	-0.475777	1.325397	-4.426715	-3.528169	0.000000	0.000000	28.311481	6.230351	5.260344	69.548059	-25.970192	-9.088049	94.930178	89.413951	-24.556778	3.064255	49.055609	-47.337490	-25.454145	112.856890	88.675803	-26.433820	-1.013348
5.534483	-0.899821	0.181181	88.039663	0.163532	0.752634	0.760859	-2.379148	-2.828414	6.386985	3.426553	0.059805	26.384760	-1.252618	0.000000	0.594133	-0.513942	-7.120870	6.646689	0.116007	31.882672	15.210511	0.000000	0.162056	-0.380808	-0.850703	0.300954	-0.506474	-0.903872	0.266242	-0.925896	-0.903872	0.185214	-0.925896	-0.744365	0.150485	-0.776543	-0.691196	0.092599	-0.589871	-0.638027	1.157551	-4.307775	-4.731353	0.000000	0.000000	28.161529	6.499129	5.761252	64.273512	-25.781371	-11.358707	100.485786	89.379164	-21.986336	6.479104	40.463742	-47.295984	-31.675143	117.598324	88.155822	-23.222924	1.117414
5.551724	-0.761820	0.175118	88.441925	0.162642	0.752051	0.758948	-2.666113	-2.677847	6.936137	3.181850	0.055534	26.285652	-2.560226	0.000000	0.622610	-0.672637	-7.002054	6.909153	0.120587	32.149329	15.495567	0.000000	0.140170	-0.371201	-1.028177	0.260309	-0.493698	-1.092438	0.230285	-0.902539	-1.092438	0.160200	-0.902539	-0.899655	0.130162	-0.756954	-0.835394	0.080093	-0.574991	-0.771133	1.001219	-4.199103	-5.718411	0.000000	0.000000	27.889176	6.573822	6.002258	58.243702	-25.726405	-14.263815	105.891141	89.312472	-19.111165	10.449824	31.528542	-46.559536	-38.127296	121.688004	87.768496	-19.737773	3.169545
5.568966	-0.626556	0.138922	88.776866	0.161762	0.751354	0.756974	-2.912412	-2.536428	7.585457	2.935995	0.051243	26.220936	-3.871841	0.000000	0.662619	-0.817348	-6.882305	7.113182	0.124148	32.468393	15.708218	0.000000	0.120713	-0.360693	-1.171363	0.224175	-0.479721	-1.244573	0.198319	-0.876988	-1.244573	0.137962	-0.876988	-1.024943	0.112094	-0.735525	-0.951733	0.068975	-0.558713	-0.878522	0.862238	-4.080228	-6.514771	0.000000	0.000000	27.490525	6.478664	6.047781	51.597566	-25.857203	-17.713038	110.916930	89.249828	-16.019817	14.775920	22.421695	-45.168151	-44.601914	124.970561	87.586086	-16.498707	4.922040
5.586207	-0.491747	0.060145	89.029416	0.160902	0.750534	0.754971	-3.099190	-2.405386	8.334872	2.693308	0.047007	26.183108	-5.164432	0.000000	0.719759	-0.948705	-6.739734	7.253425	0.126596	32.812423	15.815132	0.000000	0.104497	-0.348730	-1.284155	0.194062	-0.463810	-1.364415	0.171679	-0.847901	-1.364415	0.119430	-0.847901	-1.123636	0.097036	-0.711129	-1.043376	0.059710	-0.540182	-0.963117	0.746414	-3.944899	-7.142087	0.000000	0.000000	26.981542	6.257556	5.948577	44.514299	-26.166347	-21.659619	115.300446	89.194447	-12.861613	19.133243	13.344807	-43.222648	-50.845813	127.314687	87.528089	-13.985208	6.167717
5.603448	-0.359766	-0.072168	89.194984	0.160040	0.749588	0.752968	-3.213468	-2.290633	9.153421	2.451488	0.042787	26.177664	-6.390326	0.000000	0.794638	-1.059623	-6.525094	7.316920	0.127704	33.138325	15.750421	0.000000	0.092239	-0.335331	-1.368794	0.171296	-0.445990	-1.454344	0.151539	-0.815324	-1.454344	0.105420	-0.815324	-1.197695	0.085653	-0.683807	-1.112145	0.052705	-0.519428	-1.026596	0.658851	-3.793333	-7.612823	0.000000	0.000000	26.383616	5.957551	5.744823	37.179752	-26.615457	-26.110726	118.784578	89.157222	-9.806854	23.154801	4.531886	-40.805138	-56.678259	128.619532	87.542757	-12.461413	6.685395
5.620690	-0.231553	-0.273891	89.286076	0.159170	0.748527	0.751009	-3.237091	-2.192798	10.053067	2.208687	0.038549	26.172405	-7.593678	0.000000	0.911011	-1.150017	-6.239981	7.318164	0.127726	33.417268	15.526774	0.000000	0.085304	-0.320946	-1.427283	0.158418	-0.426858	-1.516488	0.140146	-0.780347	-1.516488	0.097494	-0.780347	-1.248873	0.079213	-0.654472	-1.159668	0.048743	-0.497145	-1.070462	0.609316	-3.630601	-7.938120	0.000000	0.000000	25.709389	5.659116	5.484378	29.794618	-27.160372	-31.105399	121.172228	89.159241	-6.989866	26.564889	-3.792842	-37.984778	-61.997306	128.866288	87.660199	-11.943292	6.574149
5.637931	-0.115154	-0.546428	89.320319	0.158268	0.747382	0.749134	-3.183976	-2.113738	11.191860	1.934581	0.033765	26.078409	-9.033173	0.000000	1.069228	-1.208971	-5.853318	7.248525	0.126511	33.621520	15.125734	0.000000	0.082372	-0.306484	-1.459826	0.152972	-0.407624	-1.551066	0.135328	-0.745185	-1.551066	0.094142	-0.745185	-1.277348	0.076490	-0.624982	-1.186109	0.047067	-0.474744	-1.094870	0.588372	-3.467008	-8.119116	0.000000	0.000000	24.998934	5.354600	5.160935	22.520444	-27.754075	-36.682274	122.333025	89.322874	-4.598058	29.056124	-11.389554	-34.844763	-66.785899	128.035160	87.971309	-12.196205	5.922377
